<?xml version="1.0" ?><svg height="295px" version="1.1" viewBox="0 0 295 295" width="295px" xmlns="http://www.w3.org/2000/svg" xmlns:xlink="http://www.w3.org/1999/xlink"><title/><desc/><defs/><g fill="none" fill-rule="evenodd" id="Page-1" stroke="none" stroke-width="1"><g fill-rule="nonzero" id="compassv1"><path d="M147.421,0 C66.133,0 0,66.133 0,147.421 C0,228.709 66.133,294.842 147.421,294.842 C193.118,294.842 235.482,274.166 263.651,238.115 C265.691,235.504 265.228,231.733 262.617,229.693 C260.005,227.652 256.235,228.115 254.195,230.727 C228.316,263.847 189.398,282.843 147.421,282.843 C72.75,282.843 12,222.093 12,147.421 C12,72.749 72.75,12 147.421,12 C222.092,12 282.842,72.75 282.842,147.421 C282.842,150.734 285.529,153.421 288.842,153.421 C292.155,153.421 294.842,150.734 294.842,147.421 C294.843,66.133 228.71,0 147.421,0 Z" fill="#000000" id="Shape"/><path d="M144.995,238.9 C145.388,238.978 145.78,239.016 146.168,239.016 C148.554,239.016 150.766,237.586 151.709,235.311 L214.945,82.645 C215.874,80.403 215.36,77.822 213.644,76.106 C211.928,74.39 209.348,73.878 207.105,74.805 L54.44,138.042 C51.795,139.138 50.293,141.949 50.851,144.756 C51.41,147.564 53.873,149.586 56.736,149.586 L140.166,149.586 L140.166,233.016 C140.166,235.877 142.188,238.341 144.995,238.9 Z M86.9,137.585 L198.315,91.435 L152.165,202.851 L152.165,143.585 C152.165,140.272 149.478,137.585 146.165,137.585 L86.9,137.585 Z" fill="#FB4A5E" id="Shape"/></g></g></svg>